<svg width="96" height="96" viewBox="0 0 480 480" fill="none" xmlns="http://www.w3.org/2000/svg">
<path d="M240 164H331.2C354.133 164 372 165.467 384.8 168.4C397.867 171.067 407.333 176 413.2 183.2C419.333 190.4 422.4 200.933 422.4 214.8V259.6C422.4 275.067 416 287.067 403.2 295.6C390.667 303.867 374.667 308 355.2 308L438.4 423.6H390.8L316.4 312.8H278.8V423.6H240V164ZM329.6 287.2C348.8 287.2 362.533 284.933 370.8 280.4C379.333 275.6 383.6 267.067 383.6 254.8V218.8C383.6 199.333 366.8 189.6 333.2 189.6H278.8V287.2H329.6Z" fill="#FA7331"/>
<path d="M150 120.2H62V93H276.8V120.2H189.2V352.6H150V120.2Z" fill="#00F6E6"/>
</svg>
